<?xml version="1.0" encoding="UTF-8"?>
<svg id="Capa_2" data-name="Capa 2" xmlns="http://www.w3.org/2000/svg" viewBox="0 0 1055.06 1000">
  <defs>
    <style>
      .cls-1 {
        fill: #2c6859;
      }
    </style>
  </defs>
  <g id="Capa_1-2" data-name="Capa 1">
    <g>
      <g>
        <path class="cls-1" d="M665.32,826.76c11.09,43.38,22.01,86.09,33.07,129.35,17.95,0,35.77,0,53.58,0,7.09,0,14.19-.15,21.28-.01,12.55.25,21.83,9.85,21.94,22.49.1,11.9-9.47,21.4-21.89,21.4-164.1.02-328.2.02-492.3-.02-12.03,0-21.34-9.18-20.91-21.42.37-10.64,6.16-22.3,21.71-22.42,23.11-.18,46.23-.16,69.35.1,4.87.05,7.15-1.14,8.41-6.21,10.02-40.2,20.35-80.33,30.57-120.48.16-.64.02-1.35.02-2.77-3.16,0-6.28,0-9.41,0-91.55,0-183.09-.07-274.64,0C46.31,826.8-.18,776.44,0,720.52.65,515.68.43,310.84.13,106.01.06,59.27,33.25,14.8,81.78,3.19,90.56,1.1,99.82.13,108.86.13,389.45-.03,670.04,0,950.63,0c56.9,0,104.41,47.29,104.42,103.96.01,206.67.01,413.34,0,620.01,0,50.71-39.8,95.44-90.34,101.46-6.55.78-13.19,1.26-19.78,1.27-90.4.09-180.81.06-271.21.07-2.51,0-5.02,0-8.4,0ZM1011.1,652.13c0-3.25,0-5.75,0-8.25,0-179.2-.3-358.41.29-537.61.1-31.28-23.42-63.51-64.2-63.46-186.75.25-373.51.38-560.26.53-93.15.07-186.3.07-279.45.11-36.33.02-63.26,26.88-63.26,63.01,0,178.97,0,357.95,0,536.92,0,2.88,0,5.75,0,8.75h966.87ZM44.22,695.31c0,9.25.36,18.14-.06,27-1.54,32.47,26.42,61.27,60.46,60.6,16.24-.32,32.5-.05,48.75-.05,265.26,0,530.52,0,795.78-.02,24.4,0,43.02-10.32,55.16-31.68,9.99-17.59,6.03-36.79,6.8-55.86H44.22ZM402.02,955.82h251.66c-11.13-43.28-22.16-86.13-33.2-129.04-60.83,0-121.02-.04-181.2.2-1.72,0-4.48,2.65-4.98,4.54-8.9,33.4-17.53,66.87-26.19,100.33-2.03,7.85-3.99,15.72-6.08,23.98Z"/>
        <path class="cls-1" d="M470.08,367.67c-67.32-32.9-96.16-102.14-78.11-168.2,16.85-61.64,75.91-104.6,143.17-101.72,62.78,2.69,116.86,47.26,130.93,111.17,14.01,63.65-18.68,128.35-79.58,157.6,11.33,3.68,22.82,6.8,33.86,11.1,66.75,25.99,113.3,72.89,140.33,138.77,7.01,17.09,11.09,35.6,14.74,53.81,5.41,27.06-12.85,47.7-40.41,47.69-137.79-.05-275.57-.02-413.36-.03-17.81,0-31.29-7.12-38.61-23.95-4.82-11.07-2.55-22.41-.53-33.59,7.51-41.49,25.36-78.34,52.12-110.59,34.41-41.48,78.45-68.21,130.62-81.58,1.07-.27,2.22-.24,4.82-.5ZM733.46,574.91c-17.57-101.79-108.25-184.66-233.78-169.54-104.6,12.6-167.35,98.44-176.42,169.54h410.2ZM625.69,238.5c1.47-51.98-42.96-98.72-97.06-98.63-54.27.09-98.75,43.45-99.62,96-.93,56.19,42.33,100.41,98.08,100.38,58.2-.04,99.71-47.95,98.6-97.74Z"/>
      </g>
      <path class="cls-1" d="M733.46,574.91c-17.57-101.79-108.25-184.66-233.78-169.54-104.6,12.6-167.35,98.44-176.42,169.54h410.2Z"/>
    </g>
  </g>
</svg>